<mxfile host="app.diagrams.net" modified="2024-02-19T08:08:09.105Z" agent="Mozilla/5.0 (Macintosh; Intel Mac OS X 10_15_7) AppleWebKit/537.36 (KHTML, like Gecko) Chrome/121.0.0.0 Safari/537.36" etag="T54EWACVQ-VB9D9uew4B" version="23.1.5" type="github">
  <diagram name="核心请求链路" id="FH6OObmb4caP7IBqAaaf">
    <mxGraphModel dx="1674" dy="786" grid="1" gridSize="10" guides="1" tooltips="1" connect="1" arrows="1" fold="1" page="1" pageScale="1" pageWidth="827" pageHeight="1169" math="0" shadow="0">
      <root>
        <mxCell id="0" />
        <mxCell id="1" parent="0" />
        <mxCell id="-nqlCAgFx9GrrW5U2T4p-7" style="edgeStyle=orthogonalEdgeStyle;rounded=0;orthogonalLoop=1;jettySize=auto;html=1;entryX=0;entryY=0.5;entryDx=0;entryDy=0;" edge="1" parent="1" source="-nqlCAgFx9GrrW5U2T4p-5" target="-nqlCAgFx9GrrW5U2T4p-6">
          <mxGeometry relative="1" as="geometry" />
        </mxCell>
        <mxCell id="-nqlCAgFx9GrrW5U2T4p-5" value="坐席" style="shape=umlActor;verticalLabelPosition=bottom;verticalAlign=top;html=1;outlineConnect=0;" vertex="1" parent="1">
          <mxGeometry x="120" y="70" width="30" height="60" as="geometry" />
        </mxCell>
        <mxCell id="-nqlCAgFx9GrrW5U2T4p-9" value="" style="edgeStyle=orthogonalEdgeStyle;rounded=0;orthogonalLoop=1;jettySize=auto;html=1;" edge="1" parent="1" source="-nqlCAgFx9GrrW5U2T4p-6" target="-nqlCAgFx9GrrW5U2T4p-8">
          <mxGeometry relative="1" as="geometry" />
        </mxCell>
        <mxCell id="-nqlCAgFx9GrrW5U2T4p-6" value="浏览器" style="rounded=0;whiteSpace=wrap;html=1;" vertex="1" parent="1">
          <mxGeometry x="220" y="75" width="100" height="50" as="geometry" />
        </mxCell>
        <mxCell id="-nqlCAgFx9GrrW5U2T4p-11" value="" style="edgeStyle=orthogonalEdgeStyle;rounded=0;orthogonalLoop=1;jettySize=auto;html=1;" edge="1" parent="1" source="-nqlCAgFx9GrrW5U2T4p-8" target="-nqlCAgFx9GrrW5U2T4p-10">
          <mxGeometry relative="1" as="geometry" />
        </mxCell>
        <mxCell id="-nqlCAgFx9GrrW5U2T4p-8" value="coredns" style="rounded=0;whiteSpace=wrap;html=1;" vertex="1" parent="1">
          <mxGeometry x="400" y="75" width="100" height="50" as="geometry" />
        </mxCell>
        <mxCell id="-nqlCAgFx9GrrW5U2T4p-13" value="" style="edgeStyle=orthogonalEdgeStyle;rounded=0;orthogonalLoop=1;jettySize=auto;html=1;" edge="1" parent="1" source="-nqlCAgFx9GrrW5U2T4p-10" target="-nqlCAgFx9GrrW5U2T4p-12">
          <mxGeometry relative="1" as="geometry" />
        </mxCell>
        <mxCell id="-nqlCAgFx9GrrW5U2T4p-10" value="web-call-admin" style="rounded=0;whiteSpace=wrap;html=1;" vertex="1" parent="1">
          <mxGeometry x="580" y="75" width="100" height="50" as="geometry" />
        </mxCell>
        <mxCell id="-nqlCAgFx9GrrW5U2T4p-17" value="" style="edgeStyle=orthogonalEdgeStyle;rounded=0;orthogonalLoop=1;jettySize=auto;html=1;" edge="1" parent="1" source="-nqlCAgFx9GrrW5U2T4p-12" target="-nqlCAgFx9GrrW5U2T4p-16">
          <mxGeometry relative="1" as="geometry" />
        </mxCell>
        <mxCell id="-nqlCAgFx9GrrW5U2T4p-12" value="call-admin" style="rounded=0;whiteSpace=wrap;html=1;" vertex="1" parent="1">
          <mxGeometry x="760" y="75" width="100" height="50" as="geometry" />
        </mxCell>
        <mxCell id="-nqlCAgFx9GrrW5U2T4p-16" value="cash-loan-service" style="rounded=0;whiteSpace=wrap;html=1;" vertex="1" parent="1">
          <mxGeometry x="940" y="75" width="100" height="50" as="geometry" />
        </mxCell>
      </root>
    </mxGraphModel>
  </diagram>
</mxfile>
